<?xml version="1.0" standalone="no"?>
<!DOCTYPE svg PUBLIC "-//W3C//DTD SVG 20010904//EN"
 "http://www.w3.org/TR/2001/REC-SVG-20010904/DTD/svg10.dtd">
<svg version="1.0" xmlns="http://www.w3.org/2000/svg"
 width="536.000000pt" height="536.000000pt" viewBox="0 0 536.000000 536.000000"
 preserveAspectRatio="xMidYMid meet">
<metadata>
Created by potrace 1.16, written by Peter Selinger 2001-2019
</metadata>
<g transform="translate(0.000000,536.000000) scale(0.100000,-0.100000)"
fill="#000000" stroke="none">
<path d="M2628 5208 c-77 -10 -146 -47 -200 -107 -35 -39 -64 -93 -137 -263
-195 -451 -615 -1398 -621 -1398 -3 0 -97 90 -209 198 l-205 198 13 47 c44
157 -82 319 -249 319 -140 0 -245 -95 -257 -234 -10 -101 47 -201 141 -251 54
-28 175 -30 224 -4 l33 18 207 -199 c114 -110 216 -209 226 -221 19 -21 18
-23 -78 -239 -54 -119 -121 -270 -149 -334 l-52 -118 -191 0 -190 0 -17 35
c-80 167 -299 206 -423 73 -119 -125 -88 -316 64 -406 63 -36 174 -39 238 -5
49 26 109 93 126 140 l12 33 162 0 161 0 -177 -398 c-97 -218 -291 -651 -430
-962 l-254 -565 0 -75 c-1 -83 19 -134 71 -181 65 -61 66 -61 418 -60 177 1
335 5 351 10 47 13 116 51 162 88 72 58 118 131 203 319 185 410 504 1036 677
1329 82 139 229 357 306 455 76 96 205 229 274 282 59 46 82 82 82 128 0 17
-41 126 -91 243 -117 272 -124 285 -153 293 -52 13 -66 -2 -131 -140 -70 -147
-421 -930 -735 -1641 -354 -801 -369 -830 -461 -908 -54 -47 -97 -57 -238 -57
-116 0 -123 1 -146 25 -16 15 -25 35 -25 56 0 39 21 88 777 1794 85 193 211
476 278 630 111 253 183 416 550 1243 59 134 109 242 110 240 1 -2 51 -113
110 -248 173 -394 594 -1328 620 -1379 13 -25 24 -40 25 -34 1 31 228 281 358
395 56 49 102 94 102 99 0 5 -53 9 -119 9 l-119 0 -62 146 c-34 80 -60 147
-57 150 2 2 175 3 385 2 l381 -3 -56 -75 c-64 -85 -313 -336 -452 -455 -112
-96 -189 -184 -283 -325 -122 -182 -165 -303 -175 -502 -16 -314 71 -527 329
-801 l83 -89 70 71 69 71 -96 95 -97 95 250 0 250 0 -63 -76 c-35 -43 -165
-171 -290 -285 -374 -344 -478 -471 -540 -656 -30 -92 -32 -106 -32 -238 0
-158 15 -232 67 -354 39 -90 104 -194 116 -187 5 3 0 41 -11 83 -21 88 -34
276 -24 346 l7 47 486 -2 486 -3 65 -143 66 -142 227 0 c125 0 230 4 233 8 3
5 -35 92 -84 193 -101 210 -490 1066 -490 1078 0 5 -6 13 -13 19 -10 8 -52
-27 -175 -148 l-162 -158 45 -97 c25 -54 45 -101 45 -106 0 -5 -104 -9 -232
-9 l-232 0 49 51 c28 28 127 120 221 204 197 177 303 288 369 386 57 85 157
284 180 359 26 85 32 303 11 430 -38 225 -111 353 -318 557 -93 92 -80 92
-162 5 l-49 -51 114 -118 114 -118 -137 -3 c-75 -1 -200 -1 -278 0 l-141 3 84
105 c47 59 155 173 248 259 202 190 265 255 339 352 129 168 184 286 215 463
19 111 19 176 0 294 -19 118 -44 190 -107 318 -54 108 -83 152 -93 143 -3 -3
6 -53 20 -110 14 -57 29 -143 32 -191 l6 -88 -550 0 c-431 0 -552 3 -556 13
-18 44 -276 627 -306 693 -46 98 -96 155 -164 189 -67 32 -128 43 -199 33z
m1770 -1109 c-8 -82 -20 -142 -40 -191 l-10 -28 -437 0 -436 0 -60 141 c-33
77 -61 145 -63 150 -2 5 203 9 525 9 l529 0 -8 -81z m-421 -1479 l302 0 25
-78 c13 -42 27 -95 31 -117 4 -22 9 -48 12 -57 4 -17 -20 -18 -411 -18 l-415
0 5 38 c7 46 38 155 59 206 16 37 18 38 53 32 20 -3 173 -6 339 -6z m369 -397
c-3 -10 -10 -38 -16 -63 -7 -25 -26 -78 -43 -117 l-31 -73 -318 0 -318 0 -20
39 c-26 51 -70 184 -70 210 0 21 2 21 411 21 386 0 410 -1 405 -17z m-70
-1433 l62 -135 -224 -3 c-123 -1 -325 -1 -449 0 l-225 3 45 90 c24 50 60 111
80 138 l35 47 307 -2 307 -3 62 -135z"/>
</g>
</svg>
